<svg xmlns="http://www.w3.org/2000/svg" viewBox="0 0 100.88 43.48"><defs><style>.cls-1{fill:#003e87;}.cls-2{fill:#d95277;}.cls-3{fill:#5db9b4;}.cls-4{fill:#309a3a;}.cls-5{fill:#ebce28;}</style></defs><g id="圖層_2" data-name="圖層 2"><polygon class="cls-1" points="10.66 0 0 10.66 10.66 10.66 10.66 0"/><polygon class="cls-2" points="10.66 33.03 10.66 10.66 0 10.66 0 43.48 10.45 33.03 10.66 33.03"/><polygon class="cls-3" points="90.22 10.66 100.88 0 10.66 0 10.66 10.66 90.22 10.66"/><polygon class="cls-3" points="100.88 0 90.22 10.66 90.22 33.03 100.67 33.03 100.88 32.82 100.88 0"/><polygon class="cls-4" points="90.22 43.48 100.67 33.03 90.22 33.03 90.22 43.48"/><polygon class="cls-5" points="10.66 33.03 10.45 33.03 0 43.48 90.22 43.48 90.22 33.03 10.66 33.03"/></g></svg>